<?xml version="1.0" encoding="UTF-8" standalone="no"?>
<!-- Created with Inkscape (http://www.inkscape.org/) -->

<svg
   xmlns:dc="http://purl.org/dc/elements/1.1/"
   xmlns:cc="http://creativecommons.org/ns#"
   xmlns:rdf="http://www.w3.org/1999/02/22-rdf-syntax-ns#"
   xmlns:svg="http://www.w3.org/2000/svg"
   xmlns="http://www.w3.org/2000/svg"
   xmlns:sodipodi="http://sodipodi.sourceforge.net/DTD/sodipodi-0.dtd"
   xmlns:inkscape="http://www.inkscape.org/namespaces/inkscape"
   width="115.48569mm"
   height="52.959705mm"
   viewBox="0 0 409.20125 187.6525"
   id="svg4459"
   version="1.1"
   inkscape:version="0.91 r13725"
   sodipodi:docname="va.svg">
  <defs
     id="defs4461" />
  <sodipodi:namedview
     id="base"
     pagecolor="#ffffff"
     bordercolor="#666666"
     borderopacity="1.0"
     inkscape:pageopacity="0.0"
     inkscape:pageshadow="2"
     inkscape:zoom="1.979899"
     inkscape:cx="79.29471"
     inkscape:cy="50.16113"
     inkscape:document-units="px"
     inkscape:current-layer="layer1"
     showgrid="false"
     fit-margin-top="0"
     fit-margin-left="0"
     fit-margin-right="0"
     fit-margin-bottom="0"
     inkscape:window-width="1855"
     inkscape:window-height="1056"
     inkscape:window-x="65"
     inkscape:window-y="24"
     inkscape:window-maximized="1" />
  <metadata
     id="metadata4464">
    <rdf:RDF>
      <cc:Work
         rdf:about="">
        <dc:format>image/svg+xml</dc:format>
        <dc:type
           rdf:resource="http://purl.org/dc/dcmitype/StillImage" />
        <dc:title></dc:title>
      </cc:Work>
    </rdf:RDF>
  </metadata>
  <g
     inkscape:label="Calque 1"
     inkscape:groupmode="layer"
     id="layer1"
     transform="translate(-69.150711,-71.622019)">
    <path
       inkscape:connector-curvature="0"
       id="path4203"
       style="fill:#9a9aff;fill-opacity:1;fill-rule:evenodd;stroke:#000000;stroke-width:0.52749997;stroke-linecap:round;stroke-linejoin:round;stroke-miterlimit:10;stroke-dasharray:none;stroke-opacity:1"
       d="m -1913.7512,-515.21815 c 19.8,-17.775 31.05,-43.05 31.05,-69.525 0,-51.75 -41.925,-93.6 -93.675,-93.6 -1.575,0 -1.575,0 -0.075,0 l 0.075,93.6 62.625,69.525 z" />
    <path
       inkscape:connector-curvature="0"
       id="path4205"
       style="fill:#9accff;fill-opacity:1;fill-rule:evenodd;stroke:#000000;stroke-width:0.52749997;stroke-linecap:round;stroke-linejoin:round;stroke-miterlimit:10;stroke-dasharray:none;stroke-opacity:1"
       d="m -1969.8512,-491.44315 c 20.85,-1.425 40.575,-9.825 56.1,-23.775 l -62.625,-69.525 6.525,93.3 z" />
    <path
       inkscape:connector-curvature="0"
       id="path4207"
       style="fill:#ccffff;fill-opacity:1;fill-rule:evenodd;stroke:#000000;stroke-width:0.52749997;stroke-linecap:round;stroke-linejoin:round;stroke-miterlimit:10;stroke-dasharray:none;stroke-opacity:1"
       d="m -2051.2262,-528.49315 c 17.625,23.475 45.375,37.275 74.85,37.275 2.4,0 4.575,-0.075 6.525,-0.225 l -6.525,-93.3 -74.85,56.25 z" />
    <path
       inkscape:connector-curvature="0"
       id="path4209"
       style="fill:#3365ff;fill-opacity:1;fill-rule:evenodd;stroke:#000000;stroke-width:0.52749997;stroke-linecap:round;stroke-linejoin:round;stroke-miterlimit:10;stroke-dasharray:none;stroke-opacity:1"
       d="m -1976.4512,-678.34315 c -51.675,0 -93.6,41.925 -93.6,93.6 0,20.25 6.6,40.05 18.825,56.25 l 74.85,-56.25 -0.075,-93.6 z" />
    <path
       inkscape:connector-curvature="0"
       id="path4215"
       style="fill:#ffffff;fill-opacity:1;fill-rule:nonzero;stroke:none"
       d="m -1825.7762,-549.49315 164.625,0 0,-78.675 -164.625,0 0,78.675 z" />
    <path
       inkscape:connector-curvature="0"
       id="path4217"
       style="fill:none;stroke:#000000;stroke-width:0.075;stroke-linecap:round;stroke-linejoin:round;stroke-miterlimit:10;stroke-dasharray:none;stroke-opacity:1"
       d="m -1661.1512,-628.24315 -164.7,0 0,78.75 164.7,0 0,-78.75 z" />
    <path
       inkscape:connector-curvature="0"
       id="path4219"
       style="fill:#9a9aff;fill-opacity:1;fill-rule:evenodd;stroke:#000000;stroke-width:0.52749997;stroke-linecap:round;stroke-linejoin:round;stroke-miterlimit:10;stroke-dasharray:none;stroke-opacity:1"
       d="m -1812.5762,-620.74315 -5.4,0 0,5.325 5.4,0 0,-5.325 z" />
    <text
       y="-615.50787"
       x="-1809.2561"
       id="text4221"
       style="font-variant:normal;font-weight:normal;font-stretch:normal;font-size:8.7914362px;font-family:Arial;-inkscape-font-specification:ArialMT;writing-mode:lr-tb;fill:#000000;fill-opacity:1;fill-rule:nonzero;stroke:none"
       transform="scale(1.0006329,0.9993675)">
      <tspan
         id="tspan4223"
         sodipodi:role="line"
         y="-615.50787"
         x="-1809.2561 -1803.4036 -1798.527 -1796.505 -1791.6284 -1789.6881 -1786.772 -1781.8268 -1777.4425 -1775.0425 -1770.1658 -1765.2207 -1762.7881">Salaires nets</tspan>
    </text>
    <path
       inkscape:connector-curvature="0"
       id="path4225"
       style="fill:#9accff;fill-opacity:1;fill-rule:evenodd;stroke:#000000;stroke-width:0.52749997;stroke-linecap:round;stroke-linejoin:round;stroke-miterlimit:10;stroke-dasharray:none;stroke-opacity:1"
       d="m -1812.5762,-601.09315 -5.4,0 0,5.4 5.4,0 0,-5.4 z" />
    <text
       y="-595.77032"
       x="-1809.2561"
       id="text4227"
       style="font-variant:normal;font-weight:normal;font-stretch:normal;font-size:8.7914362px;font-family:Arial;-inkscape-font-specification:ArialMT;writing-mode:lr-tb;fill:#000000;fill-opacity:1;fill-rule:nonzero;stroke:none"
       transform="scale(1.0006329,0.9993675)">
      <tspan
         id="tspan4229"
         sodipodi:role="line"
         y="-595.77032"
         x="-1809.2561 -1802.9139 -1798.0311 -1795.5564 -1793.5343 -1789.1439 -1784.2611 -1781.7864 -1779.839 -1774.9563 -1770.0735 -1765.5767 -1763.1766 -1758.7861 -1753.8411 -1749.4506 -1747.5042 -1742.6213 -1740.5994 -1735.7166 -1731.3262 -1728.8513 -1723.9686 -1719.0858 -1714.6954 -1712.2206 -1707.8302 -1702.9474 -1700.9254 -1696.0549 -1693.1326 -1691.1862 -1686.241">Cotisations sociales des salariés</tspan>
    </text>
    <path
       inkscape:connector-curvature="0"
       id="path4231"
       style="fill:#ccffff;fill-opacity:1;fill-rule:evenodd;stroke:#000000;stroke-width:0.52749997;stroke-linecap:round;stroke-linejoin:round;stroke-miterlimit:10;stroke-dasharray:none;stroke-opacity:1"
       d="m -1812.5762,-581.44315 -5.4,0 0,5.325 5.4,0 0,-5.325 z" />
    <text
       y="-576.10791"
       x="-1809.2561"
       id="text4233"
       style="font-variant:normal;font-weight:normal;font-stretch:normal;font-size:8.7914362px;font-family:Arial;-inkscape-font-specification:ArialMT;writing-mode:lr-tb;fill:#000000;fill-opacity:1;fill-rule:nonzero;stroke:none"
       transform="scale(1.0006329,0.9993675)">
      <tspan
         id="tspan4235"
         sodipodi:role="line"
         y="-576.10791"
         x="-1809.2561 -1802.9175 -1798.0382 -1795.5634 -1793.5414 -1789.1544 -1784.2751 -1781.8004 -1779.8531 -1774.9739 -1770.0946 -1765.5978 -1763.1978 -1758.8108 -1753.8656 -1749.4788 -1747.5358 -1742.6565 -1740.6345 -1735.7552 -1731.3683 -1728.8936 -1724.0143 -1719.135 -1714.7482 -1712.2733 -1707.394 -1700.0796 -1695.2003 -1693.1783 -1688.2991 -1683.9122 -1679.033 -1674.1537 -1671.2349">Cotisations sociales des employeurs</tspan>
    </text>
    <path
       inkscape:connector-curvature="0"
       id="path4237"
       style="fill:#3365ff;fill-opacity:1;fill-rule:evenodd;stroke:#000000;stroke-width:0.52749997;stroke-linecap:round;stroke-linejoin:round;stroke-miterlimit:10;stroke-dasharray:none;stroke-opacity:1"
       d="m -1812.5762,-561.79315 -5.4,0 0,5.4 5.4,0 0,-5.4 z" />
    <text
       y="-556.4455"
       x="-1809.2561"
       id="text4239"
       style="font-variant:normal;font-weight:normal;font-stretch:normal;font-size:8.7914362px;font-family:Arial;-inkscape-font-specification:ArialMT;writing-mode:lr-tb;fill:#000000;fill-opacity:1;fill-rule:nonzero;stroke:none"
       transform="scale(1.0006329,0.9993675)">
      <tspan
         id="tspan4241"
         sodipodi:role="line"
         y="-556.4455"
         x="-1809.2561 -1803.4089 -1799.0299 -1794.6509 -1789.7057 -1784.8344 -1779.963 -1775.0917 -1772.6168 -1770.1421 -1765.2708 -1762.3599 -1757.4885 -1755.0138 -1752.6138 -1747.7424 -1746.0175 -1741.1461 -1736.7672 -1731.8959 -1729.8738 -1725.0024 -1723.0675 -1720.5927 -1715.7222 -1713.2474 -1711.3002 -1706.355">Excedent brut d'exploitation</tspan>
    </text>
    <path
       inkscape:connector-curvature="0"
       id="path4203-3"
       style="fill:#9a9aff;fill-opacity:1;fill-rule:evenodd;stroke:#000000;stroke-width:0.52749997;stroke-linecap:round;stroke-linejoin:round;stroke-miterlimit:10;stroke-dasharray:none;stroke-opacity:1"
       d="m 225.71446,235.01077 c 19.8,-17.775 31.05,-43.05 31.05,-69.525 0,-51.75 -41.925,-93.600001 -93.675,-93.600001 -1.575,0 -1.575,0 -0.075,0 l 0.075,93.600001 62.625,69.525 z" />
    <path
       inkscape:connector-curvature="0"
       id="path4205-6"
       style="fill:#9accff;fill-opacity:1;fill-rule:evenodd;stroke:#000000;stroke-width:0.52749997;stroke-linecap:round;stroke-linejoin:round;stroke-miterlimit:10;stroke-dasharray:none;stroke-opacity:1"
       d="m 169.61446,258.78577 c 20.85,-1.425 40.575,-9.825 56.1,-23.775 l -62.625,-69.525 6.525,93.3 z" />
    <path
       inkscape:connector-curvature="0"
       id="path4207-7"
       style="fill:#ccffff;fill-opacity:1;fill-rule:evenodd;stroke:#000000;stroke-width:0.52749997;stroke-linecap:round;stroke-linejoin:round;stroke-miterlimit:10;stroke-dasharray:none;stroke-opacity:1"
       d="m 88.239461,221.73577 c 17.624999,23.475 45.374999,37.275 74.849999,37.275 2.4,0 4.575,-0.075 6.525,-0.225 l -6.525,-93.3 -74.849999,56.25 z" />
    <path
       inkscape:connector-curvature="0"
       id="path4209-5"
       style="fill:#3365ff;fill-opacity:1;fill-rule:evenodd;stroke:#000000;stroke-width:0.52749997;stroke-linecap:round;stroke-linejoin:round;stroke-miterlimit:10;stroke-dasharray:none;stroke-opacity:1"
       d="m 163.01446,71.885769 c -51.675,0 -93.599999,41.925001 -93.599999,93.600001 0,20.25 6.6,40.05 18.825,56.25 l 74.849999,-56.25 -0.075,-93.600001 z" />
    <path
       inkscape:connector-curvature="0"
       id="path4215-3"
       style="fill:#ffffff;fill-opacity:1;fill-rule:nonzero;stroke:none"
       d="m 313.68946,200.73577 164.625,0 0,-78.675 -164.625,0 0,78.675 z" />
    <path
       inkscape:connector-curvature="0"
       id="path4217-5"
       style="fill:none;stroke:#000000;stroke-width:0.075;stroke-linecap:round;stroke-linejoin:round;stroke-miterlimit:10;stroke-dasharray:none;stroke-opacity:1"
       d="m 478.31446,121.98577 -164.7,0 0,78.75 164.7,0 0,-78.75 z" />
    <path
       inkscape:connector-curvature="0"
       id="path4219-6"
       style="fill:#9a9aff;fill-opacity:1;fill-rule:evenodd;stroke:#000000;stroke-width:0.52749997;stroke-linecap:round;stroke-linejoin:round;stroke-miterlimit:10;stroke-dasharray:none;stroke-opacity:1"
       d="m 326.88946,129.48577 -5.4,0 0,5.325 5.4,0 0,-5.325 z" />
    <text
       y="135.19589"
       x="328.85632"
       id="text4221-2"
       style="font-variant:normal;font-weight:normal;font-stretch:normal;font-size:8.7914362px;font-family:Arial;-inkscape-font-specification:ArialMT;writing-mode:lr-tb;fill:#000000;fill-opacity:1;fill-rule:nonzero;stroke:none"
       transform="scale(1.0006329,0.9993675)">
      <tspan
         id="tspan4223-9"
         sodipodi:role="line"
         y="135.19589"
         x="328.85632 334.70877 339.58539 341.60742 346.48401 348.42429 351.34042 356.28558 360.66989 363.06998 367.94656 372.89172 375.32431">Salaires nets</tspan>
    </text>
    <path
       inkscape:connector-curvature="0"
       id="path4225-1"
       style="fill:#9accff;fill-opacity:1;fill-rule:evenodd;stroke:#000000;stroke-width:0.52749997;stroke-linecap:round;stroke-linejoin:round;stroke-miterlimit:10;stroke-dasharray:none;stroke-opacity:1"
       d="m 326.88946,149.13577 -5.4,0 0,5.4 5.4,0 0,-5.4 z" />
    <text
       y="154.9334"
       x="328.85632"
       id="text4227-2"
       style="font-variant:normal;font-weight:normal;font-stretch:normal;font-size:8.7914362px;font-family:Arial;-inkscape-font-specification:ArialMT;writing-mode:lr-tb;fill:#000000;fill-opacity:1;fill-rule:nonzero;stroke:none"
       transform="scale(1.0006329,0.9993675)">
      <tspan
         id="tspan4229-7"
         sodipodi:role="line"
         y="154.9334"
         x="328.85632 335.19846 340.08124 342.556 344.57803 348.96848 353.85126 356.32602 358.27335 363.1561 368.03885 372.53568 374.93573 379.3262 384.27136 388.6618 390.60825 395.491 397.51303 402.39578 406.78622 409.26102 414.1438 419.02655 423.41699 425.89178 430.28223 435.16498 437.18701 442.05746 444.97977 446.92618 451.87137">Cotisations sociales des salariés</tspan>
    </text>
    <path
       inkscape:connector-curvature="0"
       id="path4231-0"
       style="fill:#ccffff;fill-opacity:1;fill-rule:evenodd;stroke:#000000;stroke-width:0.52749997;stroke-linecap:round;stroke-linejoin:round;stroke-miterlimit:10;stroke-dasharray:none;stroke-opacity:1"
       d="m 326.88946,168.78577 -5.4,0 0,5.325 5.4,0 0,-5.325 z" />
    <text
       y="174.59581"
       x="328.85632"
       id="text4233-9"
       style="font-variant:normal;font-weight:normal;font-stretch:normal;font-size:8.7914362px;font-family:Arial;-inkscape-font-specification:ArialMT;writing-mode:lr-tb;fill:#000000;fill-opacity:1;fill-rule:nonzero;stroke:none"
       transform="scale(1.0006329,0.9993675)">
      <tspan
         id="tspan4235-3"
         sodipodi:role="line"
         y="174.59581"
         x="328.85632 335.19495 340.07419 342.54898 344.57101 348.95795 353.83719 356.31198 358.25928 363.13852 368.01776 372.51459 374.91464 379.30157 384.24677 388.63367 390.5766 395.45584 397.47787 402.35712 406.74405 409.21884 414.09808 418.97733 423.36426 425.83905 430.71829 438.03278 442.91202 444.93402 449.81329 454.2002 459.07947 463.95868 466.87747">Cotisations sociales des employeurs</tspan>
    </text>
    <path
       inkscape:connector-curvature="0"
       id="path4237-6"
       style="fill:#3365ff;fill-opacity:1;fill-rule:evenodd;stroke:#000000;stroke-width:0.52749997;stroke-linecap:round;stroke-linejoin:round;stroke-miterlimit:10;stroke-dasharray:none;stroke-opacity:1"
       d="m 326.88946,188.43577 -5.4,0 0,5.4 5.4,0 0,-5.4 z" />
    <text
       y="194.25826"
       x="328.85632"
       id="text4239-0"
       style="font-variant:normal;font-weight:normal;font-stretch:normal;font-size:8.7914362px;font-family:Arial;-inkscape-font-specification:ArialMT;writing-mode:lr-tb;fill:#000000;fill-opacity:1;fill-rule:nonzero;stroke:none"
       transform="scale(1.0006329,0.9993675)">
      <tspan
         id="tspan4241-6"
         sodipodi:role="line"
         y="194.25826"
         x="328.85632 334.70349 339.08252 343.46152 348.40671 353.27805 358.14938 363.02072 365.49551 367.97028 372.84161 375.75247 380.62381 383.0986 385.49866 390.37 392.09488 396.96622 401.34521 406.21655 408.23859 413.10992 415.04492 417.51968 422.39017 424.86493 426.81226 431.75742">Excedent brut d'exploitation</tspan>
    </text>
  </g>
</svg>
